# xmcd
#
# Track frame offsets:
#	150
#	18787
#	36032
#	56237
#	70325
#	81845
#	106127
#	118010
#	131765
#	145235
#	158035
#	171335
#	184980
#	198607
#	211307
#
# Disc length: 3613 seconds
#
# Revision: 1
# Processed by: cddbd v1.5.1PL0 Copyright (c) Steve Scherf et al.
# Submitted via: EasyCDDAExtractor 8.2.1.1
#
DISCID=da0e1b0f
DTITLE=Various Artist - King and Queen of Irish Country Music
DYEAR=1994
DGENRE=Country
TTITLE0=Sean Wilson - Forever and Ever Medley
TTITLE1=Susan McCann - Everybody's Somebody's Fool Medley
TTITLE2=Sean Wilson - Where The Grass Grows Medley
TTITLE3=Sean Wilson - Whisky In The Jar Medley
TTITLE4=Susan McCann - Little Ol' Wine Drinkin' Me
TTITLE5=Susan McCann - What I've Got In Mind
TTITLE6=Sean Wilson - Old Ireland Is The Only Place For Me
TTITLE7=Sean Wilson - The Blackthorn Stick Medley
TTITLE8=Susan McCann - Irish Eyes
TTITLE9=Sean Wilson - Home In Tyrone
TTITLE10=Susan McCann - A Mother's Love Is A Blessing
TTITLE11=Sean Wilson - Shores of Lough Neagh
TTITLE12=Susan McCann - Someone Is Looking for Someone Like You
TTITLE13=Sean Wilson - My Bonnie Lies Over The Ocean Medley
TTITLE14=Susan McCann - 40 Shades of Green Medley
EXTD=
EXTT0=
EXTT1=
EXTT2=
EXTT3=
EXTT4=
EXTT5=
EXTT6=
EXTT7=
EXTT8=
EXTT9=
EXTT10=
EXTT11=
EXTT12=
EXTT13=
EXTT14=
PLAYORDER=
